<svg enable-background="new 0 0 145 115.66" viewBox="0 0 145 115.66" xmlns="http://www.w3.org/2000/svg" xmlns:xlink="http://www.w3.org/1999/xlink"><mask id="a" height="77.76" maskUnits="userSpaceOnUse" width="75" x="35" y="14.07"><path clip-rule="evenodd" d="m35 100.88h75v-86.81h-75z" fill="#fff" fill-rule="evenodd"/></mask><mask id="b" height="9.06" maskUnits="userSpaceOnUse" width="75" x="35" y="91.83"><path clip-rule="evenodd" d="m35 100.88h75v-86.81h-75z" fill="#fff" fill-rule="evenodd"/></mask><g clip-rule="evenodd" fill-rule="evenodd"><path d="m35 91.83h75v-77.76h-75z" fill="#fff" mask="url(#a)"/><path d="m35 91.83h75v9.06h-75z" fill="#ff322e" mask="url(#b)"/><path d="m52.26 34.53-12.6 37.82h9.13l8.56-26.73 4.29 13.36h-5.55l-2.22 7.63h10.22l1.84 5.74h9.39l-12.61-37.82zm37.4 0h-13.1v37.82h9.06v-30.19h3.65c4.24 0 6.65 2.02 6.65 5.67 0 3.59-2.41 5.67-6.65 5.67h-.59v7.63h.98c9.78 0 15.52-4.92 15.52-13.3 0-8.54-5.74-13.3-15.52-13.3"/></g></svg>