<svg height="23.75819mm" viewBox="0 0 158.75 23.75819" width="158.75mm" xmlns="http://www.w3.org/2000/svg"><g fill="#08345b"><path d="m23.635215.17138v10.1647l-7.39904-10.1647h-7.51445v19.34947h6.73409v-10.3606498l7.71676 10.3606498h7.196739v-19.34947z"/><path d="m44.415154 10.23813c-.491159-.5388098-1.50268-.9306498-2.889959-.9306498-1.329579 0-2.370291.3428799-2.948008.9061498-.346901.34289-.606912.8817-.636112 1.17559h6.965591c0-.31839-.144601-.78371-.491512-1.15109m5.231411 7.27412c-1.56074 1.4698-4.219541 2.22936-8.12137 2.22936-3.93101 0-6.879029-.85787-8.526319-2.74364-.982671-1.07729-1.53188-2.4736-1.53188-4.28592 0-1.61672.520359-3.0616899 1.647288-4.1882799 1.70534-1.7881499 4.537933-2.8167801 8.468612-2.8167801 4.79761 0 7.774469 1.71435 9.0752 4.2614105.578048 1.2003895.80921 2.6453595.66461 4.1641195h-13.381631c.0292.39185.173461.8327.54922 1.22454.520351.56362 1.64729.8572 3.0349.8572 1.156121 0 1.994199-.19594 2.514211-.48951.462648-.2449.722659-.53912.780698-.78436h6.38719c-.173447.83301-.722659 1.78815-1.560729 2.57186"/><path d="m75.600325 19.52064h-7.4279s-2.28305-5.78019-2.369949-6.4411c-.0288-.24525-.202301-1.49461-.202301-1.49461s-.202308 1.22453-.231158 1.4698c-.0577.68572-2.312252 6.46591-2.312252 6.46591h-7.51445l-5.491409-13.4709799h6.734091l2.832258 8.5721499 2.5726-8.5721499h7.196741l2.62995 8.5721499 2.688-8.5721499h6.445229z"/><path d="m89.646308 19.78998c-5.982918 0-8.728282-1.10209-9.508652-3.45322-.17345-.51432-.17345-.83269-.202311-1.27387h6.474087c.02852.17178.02852.36772.173453.61261.260345.46533 1.127271.6371 3.03457.6371 1.849927 0 2.456508-.27007 2.456508-.80853 0-.51464-.635431-.63708-2.572258-.90651-.69347-.0976-3.207684-.44083-3.930343-.53844-3.468365-.46532-5.404856-1.61641-5.404856-4.1148205 0-2.6208495 2.919161-4.2617295 8.525981-4.2617295 4.942539 0 7.919405 1.0776 8.815181 3.1596402.202306.4650099.346904 1.2980298.318051 1.5674198h-6.271776c-.02885-.14694-.115411-.4411695-.231497-.5877699-.260009-.2694001-.924629-.48983-2.369611-.48983-1.907638 0-2.399139.2204299-2.399139.6609194 0 .4411805.289534.5636305 2.051899.8085505.751851.098 3.468368.46532 4.249066.56328 3.699523.51431 5.606822 1.61641 5.606822 4.11482 0 2.79229-2.803408 4.31038-8.815175 4.31038"/><path d="m105.86023 10.75251c-.46231.48982-.69347 1.29802-.69347 2.03274 0 .71022.20196 1.46978.57805 1.9351.49117.61196 1.41614 1.07794 2.91883 1.07794 1.41646 0 2.28339-.34353 2.83259-.90649.49152-.5143.78038-1.32284.78038-2.10655 0-.8327-.28886-1.66536-.80923-2.1307-.52035-.48982-1.38728-.85753-2.688-.85753-1.44464 0-2.36995.39187-2.91915.95549m6.24292-3.38007v-7.37244h6.56098v17.43886c0 .80854.20231 2.05757.20231 2.05757h-6.06948l-.4915-1.7392c-.72232 1.02895-2.80341 1.93511-5.78028 1.93511-2.80375 0-5.02909-.83268-6.38752-2.42527-1.011525-1.12624-1.531878-2.57118-1.531878-4.43251 0-1.78816.520353-3.2579398 1.531878-4.4090199 1.30072-1.56742 3.78642-2.64502 6.70557-2.64502 2.28272 0 4.30644.5388099 5.25992 1.5919199"/><path d="m129.55928 13.81402c-2.25419 0-3.26572.56362-3.26572 1.54327 0 .63677.63577.9303 2.1388.9303 1.64729 0 3.35261-.46532 3.87296-2.15518-.78069-.19594-1.27186-.31839-2.74604-.31839m3.15066 5.7067c-.11575 0-.2892-.58777-.2892-1.15139-1.18497.83302-3.41066 1.32284-6.56064 1.32284-3.52607 0-6.12751-1.0286-6.27211-3.37974 0-.17143-.0288-.68609.0292-1.05344.14461-2.20451 2.77456-3.94338 8.58369-4.11481 1.24302-.0245 2.57259.0248 4.01758.14695-.0288-.34286-.0577-.58779-.23116-.93032-.28921-.5636199-1.09842-.9064998-2.36996-.9064998-1.06955 0-1.82108.12245-2.28339.4653303-.37575.2938795-.60691.6122695-.63576.9061495h-6.27179c.0288-.63676.28921-1.5677199.75153-2.2286398 1.50268-2.1555401 4.45069-2.8902901 8.67057-2.8902901 5.14451 0 7.94825 1.4694699 8.55483 3.8453999.20265.75925.31839 2.22903.26035 3.42907-.0288.7837-.0288 2.27766-.0288 3.45355 0 1.24904.0577 2.76747.3469 3.08584z"/><path d="m149.50136 23.75819h-6.93673l2.19683-4.13928-7.13871-13.5692999h6.96492c.0292.19592 3.67101 8.0829999 3.69986 8.3030799.0288-.22008 3.61262-8.0578199 3.64148-8.3030799h6.82099z"/></g><path d="m4.6632148 19.62679c-2.4655699-1.50804-.9772999-3.25057 3.3995903-4.83779l-1.5463102-.44117c-5.77020998 1.77339-8.0915 3.84306-5.40082 5.59634 4.08735 2.66681 18.3395901 3.69408 33.2292791 2.56516-13.664449.53981-25.855059-.53913-29.6817392-2.88254" fill="#ed1834"/></svg>